<mxfile host="app.diagrams.net" agent="Mozilla/5.0 (Windows NT 10.0; Win64; x64) AppleWebKit/537.36 (KHTML, like Gecko) Chrome/133.0.0.0 Safari/537.36" version="26.0.13">
  <diagram id="C5RBs43oDa-KdzZeNtuy" name="Page-1">
    <mxGraphModel dx="2327" dy="2010" grid="1" gridSize="10" guides="1" tooltips="1" connect="1" arrows="1" fold="1" page="1" pageScale="1" pageWidth="827" pageHeight="1169" math="1" shadow="0">
      <root>
        <mxCell id="WIyWlLk6GJQsqaUBKTNV-0" />
        <mxCell id="WIyWlLk6GJQsqaUBKTNV-1" parent="WIyWlLk6GJQsqaUBKTNV-0" />
        <mxCell id="ujOE6NxIJt3HFnxXJlrD-3" style="edgeStyle=orthogonalEdgeStyle;rounded=0;orthogonalLoop=1;jettySize=auto;html=1;exitX=0.5;exitY=1;exitDx=0;exitDy=0;entryX=0.5;entryY=0;entryDx=0;entryDy=0;" parent="WIyWlLk6GJQsqaUBKTNV-1" source="ujOE6NxIJt3HFnxXJlrD-9" target="ujOE6NxIJt3HFnxXJlrD-5" edge="1">
          <mxGeometry relative="1" as="geometry">
            <mxPoint x="340" y="180" as="sourcePoint" />
            <mxPoint x="220" y="240" as="targetPoint" />
          </mxGeometry>
        </mxCell>
        <mxCell id="ujOE6NxIJt3HFnxXJlrD-18" style="edgeStyle=orthogonalEdgeStyle;rounded=0;orthogonalLoop=1;jettySize=auto;html=1;exitX=0.5;exitY=1;exitDx=0;exitDy=0;" parent="WIyWlLk6GJQsqaUBKTNV-1" source="ujOE6NxIJt3HFnxXJlrD-5" target="ujOE6NxIJt3HFnxXJlrD-15" edge="1">
          <mxGeometry relative="1" as="geometry" />
        </mxCell>
        <mxCell id="ujOE6NxIJt3HFnxXJlrD-27" style="edgeStyle=orthogonalEdgeStyle;rounded=0;orthogonalLoop=1;jettySize=auto;html=1;exitX=0.5;exitY=1;exitDx=0;exitDy=0;entryX=0.5;entryY=0;entryDx=0;entryDy=0;" parent="WIyWlLk6GJQsqaUBKTNV-1" source="ujOE6NxIJt3HFnxXJlrD-5" target="ujOE6NxIJt3HFnxXJlrD-25" edge="1">
          <mxGeometry relative="1" as="geometry" />
        </mxCell>
        <mxCell id="ujOE6NxIJt3HFnxXJlrD-5" value="Normal RCN" style="swimlane;whiteSpace=wrap;html=1;" parent="WIyWlLk6GJQsqaUBKTNV-1" vertex="1">
          <mxGeometry x="-183" y="180" width="250" height="70" as="geometry" />
        </mxCell>
        <mxCell id="ujOE6NxIJt3HFnxXJlrD-10" value="$$w(t+1) = \boldsymbol{v} . \mathbf{h}(t+1)$$" style="text;html=1;align=center;verticalAlign=middle;whiteSpace=wrap;rounded=0;" parent="ujOE6NxIJt3HFnxXJlrD-5" vertex="1">
          <mxGeometry y="30" width="250" height="30" as="geometry" />
        </mxCell>
        <mxCell id="ujOE6NxIJt3HFnxXJlrD-9" value="Recurrent Chemical Network (RCN)" style="swimlane;whiteSpace=wrap;html=1;" parent="WIyWlLk6GJQsqaUBKTNV-1" vertex="1">
          <mxGeometry x="240" y="-20" width="260" height="150" as="geometry" />
        </mxCell>
        <mxCell id="ujOE6NxIJt3HFnxXJlrD-8" value="$$\mathbf{h}(t+1) = \mathbf{y}&amp;nbsp;{\, {\scriptscriptstyle \odot}\, } \mathbf{h}(t) + \mathbf{z}{\, {\scriptscriptstyle \odot}\, } \phi(K\mathbf{h}(t) + PF)$$" style="text;html=1;align=center;verticalAlign=middle;whiteSpace=wrap;rounded=0;" parent="ujOE6NxIJt3HFnxXJlrD-9" vertex="1">
          <mxGeometry y="30" width="250" height="30" as="geometry" />
        </mxCell>
        <mxCell id="ujOE6NxIJt3HFnxXJlrD-12" value="&lt;span style=&quot;background-color: transparent; color: light-dark(rgb(0, 0, 0), rgb(255, 255, 255));&quot;&gt;$$\tau_i = \left( {\frac{\tau_{\max}}{\tau_{\min}}} \right)^{i/L}, \, \, \, z_i = \frac{1}{\tau_{min}\tau_i}$$&lt;/span&gt;" style="text;html=1;align=center;verticalAlign=middle;whiteSpace=wrap;rounded=0;" parent="ujOE6NxIJt3HFnxXJlrD-9" vertex="1">
          <mxGeometry y="50" width="260" height="60" as="geometry" />
        </mxCell>
        <mxCell id="ujOE6NxIJt3HFnxXJlrD-13" value="$$(y_i)= 1 - z_i$$" style="text;html=1;align=center;verticalAlign=middle;whiteSpace=wrap;rounded=0;" parent="ujOE6NxIJt3HFnxXJlrD-9" vertex="1">
          <mxGeometry x="45" y="110" width="170" height="30" as="geometry" />
        </mxCell>
        <mxCell id="ujOE6NxIJt3HFnxXJlrD-15" value="&lt;span style=&quot;font-weight: 400;&quot;&gt;$$(y_i)_{i \ne 0} = 1 - z_i, y_0 = 1$$&lt;/span&gt;" style="swimlane;whiteSpace=wrap;html=1;" parent="WIyWlLk6GJQsqaUBKTNV-1" vertex="1">
          <mxGeometry x="-273" y="300" width="200" height="180" as="geometry" />
        </mxCell>
        <mxCell id="ujOE6NxIJt3HFnxXJlrD-16" value="$$\tau_{min}=1, \, \tau_{max}=50$$" style="text;html=1;align=center;verticalAlign=middle;whiteSpace=wrap;rounded=0;" parent="ujOE6NxIJt3HFnxXJlrD-15" vertex="1">
          <mxGeometry x="30" y="30" width="140" height="30" as="geometry" />
        </mxCell>
        <mxCell id="ujOE6NxIJt3HFnxXJlrD-22" value="Results:&lt;div&gt;&lt;ul&gt;&lt;li&gt;P and K intalisation exploration have little effect&lt;/li&gt;&lt;li&gt;As well as number of chemicals&lt;/li&gt;&lt;li&gt;Performance around 0.73&lt;/li&gt;&lt;/ul&gt;&lt;/div&gt;" style="text;html=1;align=left;verticalAlign=middle;whiteSpace=wrap;rounded=0;" parent="ujOE6NxIJt3HFnxXJlrD-15" vertex="1">
          <mxGeometry y="60" width="200" height="120" as="geometry" />
        </mxCell>
        <mxCell id="ujOE6NxIJt3HFnxXJlrD-32" value="" style="endArrow=none;html=1;rounded=0;exitX=0;exitY=0;exitDx=0;exitDy=0;entryX=1;entryY=0;entryDx=0;entryDy=0;" parent="ujOE6NxIJt3HFnxXJlrD-15" source="ujOE6NxIJt3HFnxXJlrD-22" target="ujOE6NxIJt3HFnxXJlrD-22" edge="1">
          <mxGeometry width="50" height="50" relative="1" as="geometry">
            <mxPoint x="340" y="-60" as="sourcePoint" />
            <mxPoint x="390" y="-110" as="targetPoint" />
          </mxGeometry>
        </mxCell>
        <mxCell id="ujOE6NxIJt3HFnxXJlrD-25" value="&lt;span style=&quot;font-weight: 400;&quot;&gt;$$y_i= 1 - z_i$$&lt;/span&gt;" style="swimlane;whiteSpace=wrap;html=1;" parent="WIyWlLk6GJQsqaUBKTNV-1" vertex="1">
          <mxGeometry x="-53" y="300" width="200" height="200" as="geometry" />
        </mxCell>
        <mxCell id="ujOE6NxIJt3HFnxXJlrD-26" value="$$\tau_{min}=2, \, \tau_{max}=50$$" style="text;html=1;align=center;verticalAlign=middle;whiteSpace=wrap;rounded=0;" parent="ujOE6NxIJt3HFnxXJlrD-25" vertex="1">
          <mxGeometry x="30" y="30" width="140" height="30" as="geometry" />
        </mxCell>
        <mxCell id="ujOE6NxIJt3HFnxXJlrD-29" value="Results:&lt;div&gt;&lt;ul&gt;&lt;li&gt;Increasing from 1 -&amp;gt; 3 chemicals improves performance&lt;/li&gt;&lt;li&gt;Performance around 0.80&lt;/li&gt;&lt;li&gt;To improve training a gain is given to the z&#39;s so they are all equal to 1&lt;/li&gt;&lt;/ul&gt;&lt;/div&gt;" style="text;html=1;align=left;verticalAlign=middle;whiteSpace=wrap;rounded=0;" parent="ujOE6NxIJt3HFnxXJlrD-25" vertex="1">
          <mxGeometry y="60" width="200" height="140" as="geometry" />
        </mxCell>
        <mxCell id="ujOE6NxIJt3HFnxXJlrD-55" value="" style="endArrow=none;html=1;rounded=0;exitX=0;exitY=0;exitDx=0;exitDy=0;entryX=1;entryY=0;entryDx=0;entryDy=0;" parent="ujOE6NxIJt3HFnxXJlrD-25" source="ujOE6NxIJt3HFnxXJlrD-29" target="ujOE6NxIJt3HFnxXJlrD-29" edge="1">
          <mxGeometry width="50" height="50" relative="1" as="geometry">
            <mxPoint x="563" y="50" as="sourcePoint" />
            <mxPoint x="203" y="60" as="targetPoint" />
          </mxGeometry>
        </mxCell>
        <mxCell id="ujOE6NxIJt3HFnxXJlrD-33" value="Neuron Specific Bias RCN" style="swimlane;whiteSpace=wrap;html=1;" parent="WIyWlLk6GJQsqaUBKTNV-1" vertex="1">
          <mxGeometry x="177" y="300" width="270" height="150" as="geometry" />
        </mxCell>
        <mxCell id="ujOE6NxIJt3HFnxXJlrD-34" value="$$\mathbf{h}(t+1) = \mathbf{y}&amp;nbsp;{\, {\scriptscriptstyle \odot}\, } \mathbf{h}(t) + \mathbf{z}{\, {\scriptscriptstyle \odot}\, } \phi(K\mathbf{h}(t) + PF +b)$$" style="text;html=1;align=center;verticalAlign=middle;whiteSpace=wrap;rounded=0;" parent="ujOE6NxIJt3HFnxXJlrD-33" vertex="1">
          <mxGeometry y="30" width="270" height="30" as="geometry" />
        </mxCell>
        <mxCell id="ujOE6NxIJt3HFnxXJlrD-36" value="" style="endArrow=none;html=1;rounded=0;exitX=0;exitY=1;exitDx=0;exitDy=0;entryX=1;entryY=1;entryDx=0;entryDy=0;" parent="ujOE6NxIJt3HFnxXJlrD-33" source="ujOE6NxIJt3HFnxXJlrD-34" target="ujOE6NxIJt3HFnxXJlrD-34" edge="1">
          <mxGeometry width="50" height="50" relative="1" as="geometry">
            <mxPoint x="-110" y="-60" as="sourcePoint" />
            <mxPoint x="-60" y="-110" as="targetPoint" />
          </mxGeometry>
        </mxCell>
        <mxCell id="ujOE6NxIJt3HFnxXJlrD-37" value="Results:&lt;div&gt;&lt;ul&gt;&lt;li&gt;Performance much improved: 0.9&lt;/li&gt;&lt;li&gt;But massive increase in&amp;nbsp; number of parameters and not biologically plausible&lt;/li&gt;&lt;/ul&gt;&lt;/div&gt;" style="text;html=1;align=left;verticalAlign=middle;whiteSpace=wrap;rounded=0;" parent="ujOE6NxIJt3HFnxXJlrD-33" vertex="1">
          <mxGeometry y="60" width="270" height="80" as="geometry" />
        </mxCell>
        <mxCell id="ujOE6NxIJt3HFnxXJlrD-35" style="edgeStyle=orthogonalEdgeStyle;rounded=0;orthogonalLoop=1;jettySize=auto;html=1;exitX=1;exitY=0.5;exitDx=0;exitDy=0;entryX=0.5;entryY=0;entryDx=0;entryDy=0;" parent="WIyWlLk6GJQsqaUBKTNV-1" source="ujOE6NxIJt3HFnxXJlrD-10" target="ujOE6NxIJt3HFnxXJlrD-33" edge="1">
          <mxGeometry relative="1" as="geometry" />
        </mxCell>
        <mxCell id="ujOE6NxIJt3HFnxXJlrD-39" value="Reservoir RCN" style="swimlane;whiteSpace=wrap;html=1;" parent="WIyWlLk6GJQsqaUBKTNV-1" vertex="1">
          <mxGeometry x="-280" y="520" width="270" height="160" as="geometry" />
        </mxCell>
        <mxCell id="ujOE6NxIJt3HFnxXJlrD-40" value="&lt;br&gt;&lt;span style=&quot;color: rgb(0, 0, 0); font-family: Helvetica; font-size: 12px; font-style: normal; font-variant-ligatures: normal; font-variant-caps: normal; font-weight: 400; letter-spacing: normal; orphans: 2; text-align: center; text-indent: 0px; text-transform: none; widows: 2; word-spacing: 0px; -webkit-text-stroke-width: 0px; white-space: normal; background-color: rgb(251, 251, 251); text-decoration-thickness: initial; text-decoration-style: initial; text-decoration-color: initial; float: none; display: inline !important;&quot;&gt;$$\mathbf{h}(t+1) = \mathbf{y}&amp;nbsp;{\, {\scriptscriptstyle \odot}\, } \mathbf{h}(t) + \mathbf{z}{\, {\scriptscriptstyle \odot}\, } \phi(MK\mathbf{h}(t) + PF)$$&lt;/span&gt;&lt;div&gt;&lt;br/&gt;&lt;/div&gt;" style="text;html=1;align=center;verticalAlign=middle;whiteSpace=wrap;rounded=0;" parent="ujOE6NxIJt3HFnxXJlrD-39" vertex="1">
          <mxGeometry x="5" y="25" width="260" height="40" as="geometry" />
        </mxCell>
        <mxCell id="ujOE6NxIJt3HFnxXJlrD-42" value="Results:&lt;div&gt;&lt;ul&gt;&lt;li&gt;Add Masking matrix M to make K sparse.&lt;/li&gt;&lt;li&gt;Made it worse&lt;/li&gt;&lt;li&gt;Also attempted to mask K on the diagonal also made it worse.&lt;/li&gt;&lt;/ul&gt;&lt;/div&gt;" style="text;html=1;align=left;verticalAlign=middle;whiteSpace=wrap;rounded=0;" parent="ujOE6NxIJt3HFnxXJlrD-39" vertex="1">
          <mxGeometry y="60" width="270" height="100" as="geometry" />
        </mxCell>
        <mxCell id="ujOE6NxIJt3HFnxXJlrD-41" value="" style="endArrow=none;html=1;rounded=0;" parent="WIyWlLk6GJQsqaUBKTNV-1" edge="1">
          <mxGeometry width="50" height="50" relative="1" as="geometry">
            <mxPoint x="-10" y="580" as="sourcePoint" />
            <mxPoint x="-280" y="580" as="targetPoint" />
          </mxGeometry>
        </mxCell>
        <mxCell id="ujOE6NxIJt3HFnxXJlrD-43" style="edgeStyle=orthogonalEdgeStyle;rounded=0;orthogonalLoop=1;jettySize=auto;html=1;exitX=0;exitY=0.5;exitDx=0;exitDy=0;entryX=0.5;entryY=0;entryDx=0;entryDy=0;" parent="WIyWlLk6GJQsqaUBKTNV-1" source="ujOE6NxIJt3HFnxXJlrD-10" target="ujOE6NxIJt3HFnxXJlrD-39" edge="1">
          <mxGeometry relative="1" as="geometry">
            <mxPoint x="-310" y="530" as="targetPoint" />
            <Array as="points">
              <mxPoint x="-370" y="225" />
              <mxPoint x="-370" y="510" />
            </Array>
          </mxGeometry>
        </mxCell>
        <mxCell id="ujOE6NxIJt3HFnxXJlrD-44" value="Adjusted RCN" style="swimlane;whiteSpace=wrap;html=1;" parent="WIyWlLk6GJQsqaUBKTNV-1" vertex="1">
          <mxGeometry x="10" y="520" width="270" height="110" as="geometry" />
        </mxCell>
        <mxCell id="ujOE6NxIJt3HFnxXJlrD-45" value="$$\mathbf{h}(t+1) = \mathbf{y}&amp;nbsp;{\, {\scriptscriptstyle \odot}\, } \mathbf{h}(t) + \mathbf{z}{\, {\scriptscriptstyle \odot}\, } \phi(K\mathbf{z}\mathbf{h}(t) + PF)$$" style="text;html=1;align=center;verticalAlign=middle;whiteSpace=wrap;rounded=0;" parent="ujOE6NxIJt3HFnxXJlrD-44" vertex="1">
          <mxGeometry x="10" y="30" width="250" height="30" as="geometry" />
        </mxCell>
        <mxCell id="ujOE6NxIJt3HFnxXJlrD-47" value="Results:&lt;div&gt;&lt;ul&gt;&lt;li&gt;Made no difference&lt;/li&gt;&lt;/ul&gt;&lt;/div&gt;" style="text;html=1;align=left;verticalAlign=middle;whiteSpace=wrap;rounded=0;" parent="ujOE6NxIJt3HFnxXJlrD-44" vertex="1">
          <mxGeometry y="60" width="270" height="60" as="geometry" />
        </mxCell>
        <mxCell id="ujOE6NxIJt3HFnxXJlrD-46" value="" style="endArrow=none;html=1;rounded=0;" parent="WIyWlLk6GJQsqaUBKTNV-1" edge="1">
          <mxGeometry width="50" height="50" relative="1" as="geometry">
            <mxPoint x="280" y="580" as="sourcePoint" />
            <mxPoint x="10" y="580" as="targetPoint" />
          </mxGeometry>
        </mxCell>
        <mxCell id="ujOE6NxIJt3HFnxXJlrD-48" style="edgeStyle=orthogonalEdgeStyle;rounded=0;orthogonalLoop=1;jettySize=auto;html=1;exitX=1;exitY=0.5;exitDx=0;exitDy=0;entryX=0.567;entryY=0.015;entryDx=0;entryDy=0;entryPerimeter=0;" parent="WIyWlLk6GJQsqaUBKTNV-1" source="ujOE6NxIJt3HFnxXJlrD-10" target="ujOE6NxIJt3HFnxXJlrD-44" edge="1">
          <mxGeometry relative="1" as="geometry" />
        </mxCell>
        <mxCell id="ujOE6NxIJt3HFnxXJlrD-60" style="edgeStyle=orthogonalEdgeStyle;rounded=0;orthogonalLoop=1;jettySize=auto;html=1;exitX=0.5;exitY=1;exitDx=0;exitDy=0;entryX=0.5;entryY=0;entryDx=0;entryDy=0;" parent="WIyWlLk6GJQsqaUBKTNV-1" source="ujOE6NxIJt3HFnxXJlrD-50" target="ujOE6NxIJt3HFnxXJlrD-56" edge="1">
          <mxGeometry relative="1" as="geometry" />
        </mxCell>
        <mxCell id="ujOE6NxIJt3HFnxXJlrD-50" value="Incremental RCN" style="swimlane;whiteSpace=wrap;html=1;" parent="WIyWlLk6GJQsqaUBKTNV-1" vertex="1">
          <mxGeometry x="580" y="180" width="270" height="70" as="geometry" />
        </mxCell>
        <mxCell id="ujOE6NxIJt3HFnxXJlrD-52" value="$$w(t+1) = w(t) + \boldsymbol{v} . \mathbf{h}(t+1)$$" style="text;html=1;align=center;verticalAlign=middle;whiteSpace=wrap;rounded=0;" parent="ujOE6NxIJt3HFnxXJlrD-50" vertex="1">
          <mxGeometry x="10" y="30" width="250" height="30" as="geometry" />
        </mxCell>
        <mxCell id="ujOE6NxIJt3HFnxXJlrD-54" style="edgeStyle=orthogonalEdgeStyle;rounded=0;orthogonalLoop=1;jettySize=auto;html=1;exitX=0.5;exitY=1;exitDx=0;exitDy=0;entryX=0.538;entryY=0.068;entryDx=0;entryDy=0;entryPerimeter=0;" parent="WIyWlLk6GJQsqaUBKTNV-1" source="ujOE6NxIJt3HFnxXJlrD-9" target="ujOE6NxIJt3HFnxXJlrD-50" edge="1">
          <mxGeometry relative="1" as="geometry" />
        </mxCell>
        <mxCell id="ujOE6NxIJt3HFnxXJlrD-56" value="&lt;span style=&quot;font-weight: 400;&quot;&gt;$$y_i= 1 - z_i$$&lt;/span&gt;" style="swimlane;whiteSpace=wrap;html=1;" parent="WIyWlLk6GJQsqaUBKTNV-1" vertex="1">
          <mxGeometry x="560" y="300" width="200" height="200" as="geometry" />
        </mxCell>
        <mxCell id="ujOE6NxIJt3HFnxXJlrD-57" value="$$\tau_{min}=1+1/50, \, \tau_{max}=50$$" style="text;html=1;align=center;verticalAlign=middle;whiteSpace=wrap;rounded=0;" parent="ujOE6NxIJt3HFnxXJlrD-56" vertex="1">
          <mxGeometry x="30" y="30" width="140" height="30" as="geometry" />
        </mxCell>
        <mxCell id="ujOE6NxIJt3HFnxXJlrD-58" value="Results:&lt;div&gt;&lt;ul&gt;&lt;li&gt;Increasing number of chemicals makes no difference&lt;/li&gt;&lt;li&gt;Performance around 0.72&lt;/li&gt;&lt;li&gt;Better performance when not starting from chemicals at 0.&lt;/li&gt;&lt;/ul&gt;&lt;/div&gt;" style="text;html=1;align=left;verticalAlign=middle;whiteSpace=wrap;rounded=0;" parent="ujOE6NxIJt3HFnxXJlrD-56" vertex="1">
          <mxGeometry y="60" width="200" height="140" as="geometry" />
        </mxCell>
        <mxCell id="ujOE6NxIJt3HFnxXJlrD-59" value="" style="endArrow=none;html=1;rounded=0;exitX=0;exitY=0;exitDx=0;exitDy=0;entryX=1;entryY=0;entryDx=0;entryDy=0;" parent="ujOE6NxIJt3HFnxXJlrD-56" source="ujOE6NxIJt3HFnxXJlrD-58" target="ujOE6NxIJt3HFnxXJlrD-58" edge="1">
          <mxGeometry width="50" height="50" relative="1" as="geometry">
            <mxPoint x="563" y="50" as="sourcePoint" />
            <mxPoint x="203" y="60" as="targetPoint" />
          </mxGeometry>
        </mxCell>
        <mxCell id="wQmdciBCwplBzr9jTdbN-2" value="Layer Dependant RCN" style="swimlane;whiteSpace=wrap;html=1;" vertex="1" parent="WIyWlLk6GJQsqaUBKTNV-1">
          <mxGeometry x="627" y="-15" width="300" height="150" as="geometry" />
        </mxCell>
        <mxCell id="wQmdciBCwplBzr9jTdbN-5" value="&lt;div&gt;&lt;span style=&quot;background-color: transparent; color: light-dark(rgb(0, 0, 0), rgb(255, 255, 255));&quot;&gt;RCN where paremeters arn&#39;t shared between layers.&lt;/span&gt;&lt;/div&gt;&lt;div&gt;&lt;span style=&quot;background-color: transparent; color: light-dark(rgb(0, 0, 0), rgb(255, 255, 255));&quot;&gt;Perforns Better than normal RCN.&lt;/span&gt;&lt;/div&gt;&lt;div&gt;Learning rate must be lower.&lt;/div&gt;&lt;div&gt;Results - 0.83&lt;/div&gt;" style="text;html=1;align=left;verticalAlign=middle;resizable=0;points=[];autosize=1;strokeColor=none;fillColor=none;" vertex="1" parent="wQmdciBCwplBzr9jTdbN-2">
          <mxGeometry y="25" width="300" height="70" as="geometry" />
        </mxCell>
        <mxCell id="wQmdciBCwplBzr9jTdbN-3" value="" style="shape=flexArrow;endArrow=classic;startArrow=classic;html=1;rounded=0;entryX=0;entryY=0.5;entryDx=0;entryDy=0;exitX=1;exitY=0.5;exitDx=0;exitDy=0;" edge="1" parent="WIyWlLk6GJQsqaUBKTNV-1" source="ujOE6NxIJt3HFnxXJlrD-12" target="wQmdciBCwplBzr9jTdbN-2">
          <mxGeometry width="100" height="100" relative="1" as="geometry">
            <mxPoint x="290" y="410" as="sourcePoint" />
            <mxPoint x="390" y="310" as="targetPoint" />
          </mxGeometry>
        </mxCell>
      </root>
    </mxGraphModel>
  </diagram>
</mxfile>
